# xmcd
#
# Track frame offsets: 
#        150
#        19286
#        36922
#        54182
#        73030
#        93775
#        113727
#        130030
#        147627
#        166707
#        188647
#
# Disc length: 2769 seconds
#
# Revision: 1
# Processed by: cddbd v1.5.2PL0 Copyright (c) Steve Scherf et al.
# Submitted via: ExactAudioCopy v1.0b3
#
DISCID=8d0acf0b
DTITLE=Gabrielle - Play To Win
DYEAR=2004
DGENRE=Soul
TTITLE0=Ten Years Time
TTITLE1=Sometimes
TTITLE2=Stay The Same
TTITLE3=You Used To Love Me
TTITLE4=No Big Deal
TTITLE5=Latchkey Kid
TTITLE6=Fallen Angel
TTITLE7=Give And Take
TTITLE8=War Of Two Minds
TTITLE9=Picking Up The Pieces
TTITLE10=Tumbling Down
EXTD=
EXTT0=
EXTT1=
EXTT2=
EXTT3=
EXTT4=
EXTT5=
EXTT6=
EXTT7=
EXTT8=
EXTT9=
EXTT10=
PLAYORDER=
